<svg width="120" height="36" viewBox="0 0 120 36" fill="none" xmlns="http://www.w3.org/2000/svg">
<g clip-path="url(#clip0_1_138)">
<g clip-path="url(#clip1_1_138)">
<path d="M10.426 36C4.7452 36 0.139999 31.3948 0.139999 25.714V10.286C0.139999 4.6052 4.7452 0 10.426 0H25.854C31.5348 0 36.14 4.6052 36.14 10.286V25.714C36.14 31.3948 31.5348 36 25.854 36H10.426Z" fill="black"/>
<path d="M12.695 16.159C12.673 15.905 12.861 15.683 13.115 15.667C14.009 15.608 16.075 15.491 18.14 15.491C20.206 15.491 22.271 15.608 23.165 15.667C23.419 15.683 23.608 15.905 23.586 16.159L22.927 23.738C22.805 25.14 21.642 26.221 20.234 26.223C19.624 26.224 18.919 26.224 18.14 26.22C17.393 26.216 16.714 26.216 16.12 26.217C14.682 26.219 13.473 25.124 13.348 23.691L12.695 16.159Z" fill="white"/>
<path d="M13.0691 10.321C12.4911 10.489 12.1251 10.992 11.9951 11.579L11.4151 14.206C11.3491 14.505 11.5871 14.784 11.8931 14.766C12.9911 14.701 15.4411 14.576 18.1401 14.576C20.8391 14.576 23.2891 14.701 24.3881 14.766C24.6931 14.784 24.9311 14.505 24.8651 14.206L24.2861 11.579C24.1561 10.992 23.7891 10.489 23.2111 10.321C22.3531 10.072 20.7811 9.776 18.1401 9.776C15.5001 9.776 13.9271 10.072 13.0691 10.321Z" fill="white"/>
</g>
<path d="M55.1408 26.293C50.1955 26.293 47.09 22.9883 47.09 17.5391V17.5273C47.09 12.0781 50.2072 8.79688 55.1408 8.79688C59.2423 8.79688 62.1838 11.3867 62.5119 14.9727L62.5236 15.0781H59.0783L59.0314 14.8789C58.633 13.0156 57.2502 11.7969 55.1408 11.7969C52.4338 11.7969 50.6994 13.9766 50.6994 17.5156V17.5273C50.6994 21.0898 52.4338 23.293 55.1408 23.293C57.1798 23.293 58.6095 22.1211 59.0666 20.1172L59.09 20H62.5353L62.5236 20.1289C62.1955 23.7266 59.2306 26.293 55.1408 26.293ZM70.1994 26.2578C66.3791 26.2578 63.9767 23.8086 63.9767 19.7188V19.6953C63.9767 15.6523 66.4377 13.1797 70.1877 13.1797C73.9494 13.1797 76.422 15.6289 76.422 19.6953V19.7188C76.422 23.8203 73.9963 26.2578 70.1994 26.2578ZM70.2111 23.5742C71.8752 23.5742 72.9416 22.168 72.9416 19.7188V19.6953C72.9416 17.2695 71.8517 15.8633 70.1877 15.8633C68.5353 15.8633 67.4572 17.2695 67.4572 19.6953V19.7188C67.4572 22.1797 68.5236 23.5742 70.2111 23.5742ZM79.1056 26V16.0156H77.3947V13.4375H79.1056V12.4297C79.1056 9.96875 80.2775 8.83203 83.2423 8.83203C83.8752 8.83203 84.5666 8.89062 84.965 8.97266V11.2344C84.7306 11.1875 84.4025 11.1758 84.0861 11.1758C82.9494 11.1758 82.4455 11.6562 82.4455 12.5586V13.4375H84.9416V16.0156H82.5275V26H79.1056ZM87.6603 26V16.0156H85.9494V13.4375H87.6603V12.4297C87.6603 9.96875 88.8322 8.83203 91.797 8.83203C92.4298 8.83203 93.1213 8.89062 93.5197 8.97266V11.2344C93.2853 11.1875 92.9572 11.1758 92.6408 11.1758C91.5041 11.1758 91.0002 11.6562 91.0002 12.5586V13.4375H93.4963V16.0156H91.0822V26H87.6603ZM100.129 26.2578C96.2853 26.2578 93.9533 23.7617 93.9533 19.7422V19.7305C93.9533 15.7344 96.3088 13.1797 99.9884 13.1797C103.668 13.1797 105.977 15.6758 105.977 19.4727V20.5273H97.3283C97.3634 22.5312 98.4533 23.7031 100.199 23.7031C101.606 23.7031 102.461 22.9297 102.707 22.2266L102.731 22.1562H105.871L105.836 22.2852C105.449 24.1367 103.715 26.2578 100.129 26.2578ZM100.047 15.7344C98.6408 15.7344 97.5861 16.6719 97.3634 18.3711H102.695C102.485 16.6367 101.465 15.7344 100.047 15.7344ZM113.465 26.2578C109.621 26.2578 107.289 23.7617 107.289 19.7422V19.7305C107.289 15.7344 109.645 13.1797 113.324 13.1797C117.004 13.1797 119.313 15.6758 119.313 19.4727V20.5273H110.664C110.699 22.5312 111.789 23.7031 113.535 23.7031C114.942 23.7031 115.797 22.9297 116.043 22.2266L116.067 22.1562H119.207L119.172 22.2852C118.785 24.1367 117.051 26.2578 113.465 26.2578ZM113.383 15.7344C111.977 15.7344 110.922 16.6719 110.699 18.3711H116.031C115.82 16.6367 114.801 15.7344 113.383 15.7344Z" fill="black"/>
</g>
<defs>
<clipPath id="clip0_1_138">
<rect width="120" height="36" fill="white"/>
</clipPath>
<clipPath id="clip1_1_138">
<rect width="36" height="36" fill="white" transform="translate(0.139999)"/>
</clipPath>
</defs>
</svg>
