<svg width="67" height="31" viewBox="0 0 67 31" fill="none" xmlns="http://www.w3.org/2000/svg">
<path d="M0 15.1328C0 18.1966 0.59245 20.8626 1.77734 23.1308C2.97917 25.3991 4.64648 27.1595 6.77928 28.4121C8.92908 29.6478 11.4089 30.2656 14.2188 30.2656C16.5209 30.2656 18.6706 29.7747 20.668 28.793C22.6654 27.7943 24.7136 26.2877 26.8125 24.2734L33.1094 18.2305L39.3809 24.2734C41.4798 26.2877 43.528 27.7943 45.5254 28.793C47.5397 29.7747 49.6895 30.2656 51.9746 30.2656C54.7845 30.2656 57.2559 29.6478 59.3887 28.4121C61.5384 27.1595 63.2057 25.3991 64.3906 23.1308C65.5925 20.8626 66.1934 18.1966 66.1934 15.1328C66.1934 12.069 65.5925 9.403 64.3906 7.1348C63.2057 4.8665 61.5384 3.1146 59.3887 1.8789C57.2559 0.626299 54.7845 0 51.9746 0C49.6895 0 47.5397 0.499299 45.5254 1.498C43.528 2.4798 41.4798 3.9779 39.3809 5.9922L33.1094 12.0351L26.8125 5.9922C24.7136 3.9779 22.6654 2.4798 20.668 1.498C18.6706 0.499299 16.5209 0 14.2188 0C11.4089 0 8.92908 0.626299 6.77928 1.8789C4.64648 3.1146 2.97917 4.8665 1.77734 7.1348C0.59245 9.403 0 12.069 0 15.1328ZM4.59568 15.1328C4.59568 12.9831 5.00198 11.1211 5.81448 9.5469C6.62698 7.9726 7.75258 6.7539 9.19138 5.8906C10.6472 5.0273 12.3229 4.5957 14.2188 4.5957C15.8438 4.5957 17.4011 4.9935 18.8906 5.789C20.3802 6.5677 21.946 7.7187 23.5879 9.2422L29.8848 15.1328L23.5625 21.0234C21.9375 22.5469 20.3802 23.7064 18.8906 24.5019C17.4011 25.2806 15.8438 25.6699 14.2188 25.6699C12.3229 25.6699 10.6472 25.2383 9.19138 24.375C7.75258 23.5117 6.62698 22.293 5.81448 20.7187C5.00198 19.1276 4.59568 17.2656 4.59568 15.1328ZM36.3086 15.1328L42.6055 9.2422C44.2474 7.7187 45.8132 6.5677 47.3028 5.789C48.7923 4.9935 50.3496 4.5957 51.9746 4.5957C53.8705 4.5957 55.5378 5.0273 56.9766 5.8906C58.4323 6.7539 59.5664 7.9726 60.3789 9.5469C61.1914 11.1211 61.5977 12.9831 61.5977 15.1328C61.5977 17.2656 61.1914 19.1276 60.3789 20.7187C59.5664 22.293 58.4323 23.5117 56.9766 24.375C55.5378 25.2383 53.8705 25.6699 51.9746 25.6699C50.3496 25.6699 48.7923 25.2806 47.3028 24.5019C45.8132 23.7064 44.2559 22.5469 42.6309 21.0234L36.3086 15.1328Z" fill="black"/>
</svg>
