<svg width="43" height="55" viewBox="0 0 43 55" fill="none" xmlns="http://www.w3.org/2000/svg">
<path d="M11.4765 20.4903H15.7676C16.5293 20.4903 17.0032 20.1348 17.1894 19.4239L19.373 10.6133H17.164L20.3633 26.127C20.4479 26.601 20.668 26.9226 21.0234 27.0918C21.3958 27.2442 21.7682 27.2442 22.1406 27.0918C22.513 26.9395 22.7754 26.6348 22.9277 26.1778L26.5332 13.711L24.4765 13.6602L25.8223 19.3477C25.9915 20.1094 26.4655 20.4903 27.2441 20.4903H31.2305C31.6028 20.4903 31.916 20.3633 32.1699 20.1094C32.4238 19.8555 32.5508 19.5508 32.5508 19.1954C32.5508 18.823 32.4238 18.5098 32.1699 18.2559C31.916 18.002 31.6028 17.875 31.2305 17.875H27.498L28.1582 18.3829L26.7109 12.7715C26.5924 12.3314 26.3555 12.0437 26 11.9083C25.6445 11.7559 25.289 11.7644 24.9336 11.9336C24.5781 12.086 24.3242 12.3822 24.1719 12.8223L20.4902 24.8575H22.623L19.4746 9.3438C19.373 8.8868 19.1445 8.5821 18.789 8.4297C18.4336 8.2605 18.0696 8.252 17.6973 8.4043C17.3249 8.5567 17.0879 8.8614 16.9863 9.3184L14.7012 18.6622L15.4629 17.875H11.4765C11.1042 17.875 10.791 18.0105 10.5371 18.2813C10.2832 18.5352 10.1562 18.8399 10.1562 19.1954C10.1562 19.5508 10.2832 19.8555 10.5371 20.1094C10.791 20.3633 11.1042 20.4903 11.4765 20.4903ZM11.7305 33.9981H31.0019C31.442 33.9981 31.806 33.8458 32.0937 33.5411C32.3984 33.2364 32.5508 32.864 32.5508 32.4239C32.5508 31.9838 32.3984 31.6198 32.0937 31.3321C31.806 31.0274 31.442 30.875 31.0019 30.875H11.7305C11.2734 30.875 10.8926 31.0274 10.5879 31.3321C10.3001 31.6198 10.1562 31.9838 10.1562 32.4239C10.1562 32.864 10.3001 33.2364 10.5879 33.5411C10.8926 33.8458 11.2734 33.9981 11.7305 33.9981ZM11.7305 42.8594H20.8457C21.3027 42.8594 21.6751 42.7155 21.9629 42.4278C22.2676 42.1231 22.4199 41.7507 22.4199 41.3106C22.4199 40.8705 22.2676 40.4981 21.9629 40.1934C21.6751 39.8887 21.3027 39.7364 20.8457 39.7364H11.7305C11.2734 39.7364 10.8926 39.8887 10.5879 40.1934C10.3001 40.4981 10.1562 40.8705 10.1562 41.3106C10.1562 41.7507 10.3001 42.1231 10.5879 42.4278C10.8926 42.7155 11.2734 42.8594 11.7305 42.8594ZM0 46.4903C0 49.1478 0.651701 51.1368 1.9551 52.4571C3.2754 53.7774 5.2474 54.4376 7.8711 54.4376H34.8359C37.4596 54.4376 39.4232 53.7774 40.7265 52.4571C42.0469 51.1368 42.707 49.1478 42.707 46.4903V7.9727C42.707 5.3321 42.0469 3.3431 40.7265 2.0059C39.4232 0.668699 37.4596 0 34.8359 0H7.8711C5.2474 0 3.2754 0.668699 1.9551 2.0059C0.651701 3.3431 0 5.3321 0 7.9727V46.4903ZM4.0879 46.4141V8.0489C4.0879 6.7793 4.418 5.806 5.0781 5.129C5.7552 4.4349 6.7539 4.0879 8.0742 4.0879H34.6328C35.9531 4.0879 36.9433 4.4349 37.6035 5.129C38.2806 5.806 38.6191 6.7793 38.6191 8.0489V46.4141C38.6191 47.6836 38.2806 48.657 37.6035 49.334C36.9433 50.0111 35.9531 50.3497 34.6328 50.3497H8.0742C6.7539 50.3497 5.7552 50.0111 5.0781 49.334C4.418 48.657 4.0879 47.6836 4.0879 46.4141Z" fill="black"/>
</svg>
