<svg width="17" height="21" viewBox="0 0 17 21" fill="none" xmlns="http://www.w3.org/2000/svg">
<path d="M12.3176 5.05371C11.7965 5.05371 11.3069 5.13457 10.8486 5.29629C10.3904 5.44902 9.97715 5.60625 9.60879 5.76797C9.24042 5.92968 8.91699 6.01055 8.63848 6.01055C8.35097 6.01055 8.02754 5.93418 7.66816 5.78145C7.31777 5.62871 6.94043 5.48047 6.53613 5.33671C6.13184 5.18399 5.70058 5.10762 5.24238 5.10762C4.37988 5.10762 3.54434 5.3457 2.73574 5.82187C1.93613 6.28906 1.28027 6.98535 0.76816 7.91074C0.256055 8.82715 0 9.96367 0 11.3203C0 12.5871 0.211133 13.8449 0.6334 15.0937C1.06464 16.3336 1.58124 17.3848 2.1832 18.2472C2.7043 18.975 3.21191 19.5994 3.70606 20.1205C4.2002 20.6416 4.7752 20.9021 5.43106 20.9021C5.8623 20.9021 6.23516 20.8302 6.5496 20.6865C6.87305 20.5428 7.20996 20.3991 7.56035 20.2553C7.91973 20.1115 8.36445 20.0397 8.89454 20.0397C9.44258 20.0397 9.87832 20.1115 10.2018 20.2553C10.5252 20.3901 10.8397 20.5293 11.1451 20.673C11.4506 20.8078 11.8415 20.8752 12.3176 20.8752C13.0273 20.8752 13.6338 20.6057 14.1369 20.0665C14.649 19.5275 15.1251 18.939 15.5654 18.3012C16.0686 17.5644 16.428 16.8951 16.6435 16.2931C16.8681 15.6912 16.985 15.3723 16.9939 15.3364C16.976 15.3274 16.8233 15.2465 16.5357 15.0937C16.2572 14.941 15.9338 14.7029 15.5654 14.3795C15.206 14.0471 14.8871 13.6114 14.6085 13.0722C14.339 12.5332 14.2043 11.8774 14.2043 11.1047C14.2043 10.4309 14.3121 9.85137 14.5278 9.36621C14.7433 8.87207 14.9949 8.46778 15.2825 8.15332C15.57 7.82988 15.8305 7.5873 16.064 7.42559C16.2977 7.25488 16.428 7.15606 16.4549 7.12911C15.9877 6.45527 15.4667 5.97461 14.8916 5.68711C14.3256 5.39063 13.8045 5.21094 13.3284 5.14805C12.8521 5.08516 12.5153 5.05371 12.3176 5.05371ZM11.5764 3.34218C11.8998 2.94688 12.1649 2.49766 12.3715 1.99453C12.5781 1.48242 12.6815 0.956834 12.6815 0.41777C12.6815 0.256055 12.668 0.116797 12.641 0C12.12 0.0179688 11.5718 0.175195 10.9969 0.471674C10.4219 0.768158 9.9457 1.14101 9.56836 1.59023C9.27188 1.92265 9.00683 2.34492 8.77324 2.85703C8.53965 3.36016 8.42285 3.88125 8.42285 4.42031C8.42285 4.50117 8.42734 4.57753 8.43633 4.64941C8.44532 4.72129 8.45429 4.7707 8.46328 4.79765C8.55312 4.81563 8.64746 4.82461 8.74629 4.82461C9.22246 4.82461 9.72558 4.68535 10.2557 4.40683C10.7857 4.11934 11.226 3.76445 11.5764 3.34218Z" fill="white"/>
</svg>
