<svg width="60" height="47" viewBox="0 0 60 47" fill="none" xmlns="http://www.w3.org/2000/svg">
<path d="M2.7167 8.5567V12.1367H57.1543V8.5567H2.7167ZM7.9726 46.7442H51.8984C54.5729 46.7442 56.5703 46.084 57.8906 44.7637C59.2109 43.4603 59.871 41.5052 59.871 38.8985V7.8711C59.871 5.2644 59.2109 3.3008 57.8906 1.9805C56.5703 0.660201 54.5729 0 51.8984 0H7.9726C5.3151 0 3.3177 0.660201 1.9804 1.9805C0.6601 3.2839 0 5.2474 0 7.8711V38.8985C0 41.5052 0.6601 43.4603 1.9804 44.7637C3.3177 46.084 5.3151 46.7442 7.9726 46.7442ZM8.0234 42.6563C6.7539 42.6563 5.7806 42.3262 5.1035 41.666C4.4264 40.989 4.0878 39.9903 4.0878 38.67V8.0996C4.0878 6.7793 4.4264 5.7806 5.1035 5.1035C5.7806 4.4265 6.7539 4.0879 8.0234 4.0879H51.8476C53.1002 4.0879 54.0651 4.4265 54.7421 5.1035C55.4362 5.7806 55.7832 6.7793 55.7832 8.0996V38.67C55.7832 39.9903 55.4362 40.989 54.7421 41.666C54.0651 42.3262 53.1002 42.6563 51.8476 42.6563H8.0234ZM29.9609 37.2227C30.5026 37.2227 30.9765 37.028 31.3828 36.6387C31.789 36.2494 31.9921 35.7839 31.9921 35.2422V26.8633L31.8144 22.5977L33.998 24.8828L37.2988 28.1836C37.5019 28.3867 37.722 28.5391 37.9589 28.6407C38.1959 28.7422 38.4329 28.793 38.6699 28.793C39.2115 28.793 39.6601 28.6237 40.0156 28.2852C40.371 27.9466 40.5488 27.515 40.5488 26.9903C40.5488 26.7025 40.4895 26.4486 40.371 26.2285C40.2695 25.9916 40.1087 25.78 39.8886 25.5938L31.4335 17.7227C30.9257 17.2657 30.4348 17.0371 29.9609 17.0371C29.4869 17.0371 28.996 17.2657 28.4882 17.7227L20.0332 25.5938C19.83 25.78 19.6692 25.9916 19.5507 26.2285C19.4322 26.4486 19.373 26.7025 19.373 26.9903C19.373 27.515 19.5423 27.9466 19.8808 28.2852C20.2363 28.6237 20.6848 28.793 21.2265 28.793C21.7513 28.793 22.2167 28.5899 22.623 28.1836L25.9238 24.8828L28.1074 22.5977L27.955 26.8633V35.2422C27.955 35.7839 28.1497 36.2494 28.539 36.6387C28.9453 37.028 29.4192 37.2227 29.9609 37.2227Z" fill="black"/>
</svg>
