<svg width="58" height="58" viewBox="0 0 58 58" fill="none" xmlns="http://www.w3.org/2000/svg">
<path d="M28.6152 0C28.209 0 27.8535 0.1523 27.5488 0.457C27.261 0.7448 27.1172 1.1002 27.1172 1.5234V10.9433C27.1172 11.3834 27.261 11.7474 27.5488 12.0351C27.8535 12.3229 28.209 12.4668 28.6152 12.4668C29.0553 12.4668 29.4192 12.3229 29.707 12.0351C29.9948 11.7474 30.1386 11.3834 30.1386 10.9433V1.5234C30.1386 1.1002 29.9948 0.7448 29.707 0.457C29.4192 0.1523 29.0553 0 28.6152 0ZM36.1308 0.7617C35.7246 0.6263 35.3437 0.6517 34.9883 0.8379C34.6328 1.0241 34.3958 1.3541 34.2773 1.8281L33.414 4.9511C33.2955 5.3574 33.3379 5.7467 33.541 6.1191C33.7441 6.4746 34.0488 6.7031 34.455 6.8047C34.8613 6.9062 35.2422 6.8639 35.5976 6.6777C35.97 6.4746 36.207 6.1614 36.3086 5.7383L37.1465 2.6152C37.2649 2.1751 37.2226 1.7858 37.0195 1.4472C36.8333 1.1087 36.5371 0.8802 36.1308 0.7617ZM42.9609 3.834C42.5885 3.6308 42.1992 3.58 41.7929 3.6816C41.4036 3.7832 41.0989 4.0117 40.8789 4.3672L36.1816 12.5683C35.9446 12.9407 35.8854 13.33 36.0039 13.7363C36.1224 14.1256 36.3593 14.4218 36.7148 14.625C37.0703 14.845 37.4511 14.9043 37.8574 14.8027C38.2636 14.6842 38.5683 14.4388 38.7715 14.0664L43.4941 5.8906C43.6972 5.5182 43.748 5.1373 43.6465 4.748C43.5449 4.3587 43.3164 4.054 42.9609 3.834ZM49.08 8.2265C48.7754 7.9218 48.4114 7.778 47.9883 7.7949C47.582 7.7949 47.235 7.9388 46.9472 8.2265L44.6367 10.5117C44.332 10.8333 44.1712 11.1972 44.1543 11.6035C44.1543 11.9928 44.3151 12.3398 44.6367 12.6445C44.9414 12.9661 45.2968 13.1269 45.7031 13.1269C46.1093 13.1269 46.4564 12.9746 46.7441 12.6699L49.0039 10.3847C49.3255 10.0462 49.4948 9.6823 49.5117 9.2929C49.5286 8.8867 49.3847 8.5312 49.08 8.2265ZM53.4472 14.3203C53.2272 13.9479 52.914 13.7109 52.5078 13.6093C52.1185 13.5078 51.7376 13.5586 51.3652 13.7617L43.1894 18.4843C42.817 18.6875 42.5716 18.9922 42.4531 19.3984C42.3515 19.8047 42.4108 20.194 42.6308 20.5664C42.834 20.9218 43.1302 21.1588 43.5195 21.2773C43.9258 21.3789 44.3151 21.3196 44.6875 21.0996L52.8886 16.3769C53.2441 16.1569 53.4726 15.8522 53.5742 15.4629C53.6927 15.0735 53.6504 14.6927 53.4472 14.3203ZM56.5449 21.1758C56.4433 20.7526 56.2064 20.4394 55.834 20.2363C55.4616 20.0332 55.0892 19.9824 54.7168 20.084L51.5429 20.9472C51.1367 21.0657 50.832 21.3027 50.6289 21.6582C50.4258 22.0136 50.3919 22.4284 50.5273 22.9023C50.6289 23.2239 50.8405 23.4948 51.1621 23.7148C51.5006 23.9349 51.8984 23.9856 52.3554 23.8672L55.4277 23.0039C55.8678 22.8854 56.1894 22.6484 56.3925 22.2929C56.5957 21.9375 56.6465 21.5651 56.5449 21.1758ZM57.2558 28.6152C57.2558 28.192 57.1035 27.8366 56.7988 27.5488C56.511 27.261 56.1556 27.1172 55.7324 27.1172H46.3125C45.8724 27.1172 45.5084 27.261 45.2207 27.5488C44.9329 27.8366 44.789 28.192 44.789 28.6152C44.789 29.0384 44.9329 29.4023 45.2207 29.707C45.5084 29.9948 45.8724 30.1386 46.3125 30.1386H55.7324C56.1556 30.1386 56.511 29.9948 56.7988 29.707C57.1035 29.4023 57.2558 29.0384 57.2558 28.6152ZM56.5449 36.1816C56.6634 35.7584 56.6295 35.3691 56.4433 35.0136C56.2571 34.6582 55.944 34.4127 55.5039 34.2773L52.3554 33.3886C51.9323 33.2871 51.5429 33.3379 51.1875 33.541C50.832 33.7441 50.6035 34.0488 50.5019 34.455C50.4004 34.8782 50.4427 35.276 50.6289 35.6484C50.832 36.0208 51.1367 36.2578 51.5429 36.3593L54.666 37.1718C55.1061 37.2734 55.4954 37.2311 55.834 37.0449C56.1894 36.8418 56.4264 36.554 56.5449 36.1816ZM53.4218 42.9355C53.625 42.58 53.6758 42.1992 53.5742 41.7929C53.4726 41.3867 53.2441 41.082 52.8886 40.8789L44.6875 36.1562C44.3151 35.9362 43.9258 35.8854 43.5195 36.0039C43.1302 36.1054 42.834 36.334 42.6308 36.6894C42.4108 37.0618 42.3515 37.4511 42.4531 37.8574C42.5716 38.2467 42.817 38.5514 43.1894 38.7715L51.3652 43.4941C51.7376 43.6972 52.1185 43.748 52.5078 43.6465C52.8971 43.528 53.2018 43.291 53.4218 42.9355ZM49.0547 49.08C49.3763 48.7584 49.5286 48.386 49.5117 47.9629C49.5117 47.5397 49.3763 47.1927 49.1054 46.9218L46.7695 44.6367C46.4648 44.3489 46.1009 44.1966 45.6777 44.1797C45.2715 44.1627 44.9075 44.3151 44.5859 44.6367C44.2981 44.9583 44.1543 45.3138 44.1543 45.7031C44.1712 46.0924 44.332 46.4394 44.6367 46.7441L46.9218 49.0293C47.2435 49.3509 47.5989 49.5117 47.9883 49.5117C48.3945 49.5286 48.75 49.3847 49.0547 49.08ZM42.9355 53.4218C43.3079 53.2187 43.5449 52.914 43.6465 52.5078C43.748 52.1015 43.6972 51.7207 43.4941 51.3652L38.7715 43.1894C38.5683 42.8001 38.2636 42.5547 37.8574 42.4531C37.4511 42.3515 37.0703 42.4023 36.7148 42.6054C36.3593 42.8255 36.1224 43.1386 36.0039 43.5449C35.8854 43.9342 35.9446 44.3151 36.1816 44.6875L40.8789 52.8633C41.0989 53.2356 41.4036 53.4726 41.7929 53.5742C42.1823 53.6758 42.5631 53.625 42.9355 53.4218ZM36.1308 56.5703C36.6048 56.4518 36.9179 56.2064 37.0703 55.834C37.2396 55.4785 37.2734 55.1061 37.1718 54.7168L36.3593 51.5175C36.2578 51.1113 36.0123 50.8066 35.623 50.6035C35.2506 50.4004 34.8613 50.358 34.455 50.4765C34.0149 50.595 33.7018 50.832 33.5156 51.1875C33.3294 51.5599 33.2955 51.9407 33.414 52.33L34.3281 55.4277C34.4466 55.8509 34.6582 56.164 34.9629 56.3672C35.2845 56.5872 35.6738 56.6549 36.1308 56.5703ZM28.6152 57.2558C29.0553 57.2558 29.4192 57.1035 29.707 56.7988C29.9948 56.511 30.1386 56.1556 30.1386 55.7324V46.3125C30.1386 45.8724 29.9948 45.5084 29.707 45.2207C29.4192 44.9329 29.0553 44.789 28.6152 44.789C28.209 44.789 27.8535 44.9329 27.5488 45.2207C27.261 45.5084 27.1172 45.8724 27.1172 46.3125V55.7324C27.1172 56.1556 27.261 56.511 27.5488 56.7988C27.8535 57.1035 28.209 57.2558 28.6152 57.2558ZM20.998 56.5449C21.472 56.6972 21.8952 56.6549 22.2675 56.4179C22.6399 56.1979 22.8769 55.8932 22.9785 55.5039L23.8418 52.3808C23.9603 51.9746 23.9179 51.5853 23.7148 51.2129C23.5117 50.8574 23.207 50.6289 22.8008 50.5273C22.3945 50.4258 22.0052 50.4681 21.6328 50.6543C21.2773 50.8574 21.0488 51.1705 20.9472 51.5937L20.1093 54.7168C19.9909 55.1569 19.9993 55.5377 20.1347 55.8593C20.2871 56.181 20.5748 56.4095 20.998 56.5449ZM14.3203 53.4218C14.6758 53.625 15.0566 53.6758 15.4629 53.5742C15.8691 53.4726 16.1738 53.2356 16.3769 52.8633L21.0996 44.6875C21.3196 44.3151 21.3704 43.9342 21.2519 43.5449C21.1504 43.1386 20.9218 42.8255 20.5664 42.6054C20.194 42.4023 19.8047 42.3515 19.3984 42.4531C19.0091 42.5547 18.7044 42.8001 18.4843 43.1894L13.7871 51.3652C13.567 51.7207 13.5078 52.0931 13.6093 52.4824C13.7278 52.8886 13.9648 53.2018 14.3203 53.4218ZM8.2011 49.0547C8.5228 49.3593 8.8782 49.5117 9.2675 49.5117C9.6738 49.5286 10.0208 49.3932 10.3086 49.1054L12.6191 46.8203C12.9238 46.4817 13.0846 46.1178 13.1015 45.7285C13.1185 45.3392 12.9661 44.9922 12.6445 44.6875C12.3567 44.3828 12.0013 44.2304 11.5781 44.2304C11.1549 44.2135 10.7994 44.3574 10.5117 44.6621L8.2519 46.9472C7.9303 47.2858 7.761 47.6412 7.7441 48.0136C7.7441 48.403 7.8965 48.75 8.2011 49.0547ZM3.834 42.9355C4.0371 43.291 4.3418 43.528 4.748 43.6465C5.1543 43.748 5.5351 43.6972 5.8906 43.4941L14.0664 38.7715C14.4557 38.5514 14.7011 38.2467 14.8027 37.8574C14.9043 37.4511 14.8535 37.0703 14.6504 36.7148C14.4303 36.3424 14.1172 36.1054 13.7109 36.0039C13.3216 35.8854 12.9407 35.9362 12.5683 36.1562L4.3925 40.8789C4.0202 41.082 3.7832 41.3867 3.6816 41.7929C3.58 42.1823 3.6308 42.5631 3.834 42.9355ZM0.7109 36.1054C0.8125 36.5117 1.0494 36.8164 1.4218 37.0195C1.7942 37.2057 2.1751 37.2565 2.5644 37.1718L5.7129 36.3847C6.136 36.2662 6.4492 36.0377 6.6523 35.6992C6.8554 35.3437 6.8978 34.9544 6.7793 34.5312C6.6608 34.125 6.4238 33.8203 6.0683 33.6172C5.7129 33.3971 5.3235 33.3379 4.9004 33.4394L1.8535 34.2773C1.3795 34.4127 1.041 34.6582 0.8379 35.0136C0.6517 35.3522 0.6093 35.7161 0.7109 36.1054ZM0 28.6152C0 29.0384 0.143901 29.4023 0.431601 29.707C0.736301 29.9948 1.1002 30.1386 1.5234 30.1386H10.9433C11.3834 30.1386 11.7474 29.9948 12.0351 29.707C12.3229 29.4023 12.4668 29.0384 12.4668 28.6152C12.4668 28.192 12.3229 27.8366 12.0351 27.5488C11.7474 27.261 11.3834 27.1172 10.9433 27.1172H1.5234C1.1002 27.1172 0.736301 27.261 0.431601 27.5488C0.143901 27.8366 0 28.192 0 28.6152ZM0.6855 21.1504C0.6009 21.5566 0.6686 21.9375 0.8886 22.2929C1.1087 22.6484 1.4049 22.8854 1.7773 23.0039L4.9004 23.8925C5.3235 23.9941 5.7129 23.9433 6.0683 23.7402C6.4407 23.5371 6.6692 23.2239 6.7539 22.8008C6.8554 22.3945 6.8131 22.0052 6.6269 21.6328C6.4407 21.2604 6.136 21.0234 5.7129 20.9218L2.5898 20.1347C2.1328 20.0162 1.7181 20.0586 1.3457 20.2617C0.9902 20.4648 0.7702 20.761 0.6855 21.1504ZM3.8593 14.2949C3.6393 14.6673 3.58 15.0566 3.6816 15.4629C3.7832 15.8522 4.0202 16.1569 4.3925 16.3769L12.5683 21.0996C12.9407 21.3196 13.3216 21.3789 13.7109 21.2773C14.1172 21.1588 14.4303 20.9218 14.6504 20.5664C14.8535 20.194 14.9043 19.8047 14.8027 19.3984C14.7011 18.9922 14.4557 18.6875 14.0664 18.4843L5.8906 13.7617C5.5351 13.5586 5.1543 13.5078 4.748 13.6093C4.3587 13.7109 4.0625 13.9394 3.8593 14.2949ZM8.1758 8.2011C7.8711 8.4889 7.7272 8.8444 7.7441 9.2675C7.778 9.6907 7.9303 10.0462 8.2011 10.334L10.4609 12.6191C10.7825 12.9407 11.138 13.11 11.5273 13.1269C11.9336 13.1269 12.2975 12.9661 12.6191 12.6445C12.9069 12.3567 13.0508 12.0097 13.0508 11.6035C13.0677 11.1803 12.9153 10.8079 12.5937 10.4863L10.334 8.2265C10.0123 7.888 9.6484 7.7272 9.2422 7.7441C8.8528 7.7441 8.4974 7.8965 8.1758 8.2011ZM14.3203 3.8086C13.9648 4.0286 13.7278 4.3418 13.6093 4.748C13.5078 5.1373 13.567 5.5182 13.7871 5.8906L18.4843 14.0664C18.7044 14.4388 19.0091 14.6842 19.3984 14.8027C19.8047 14.9043 20.1855 14.845 20.541 14.625C20.9134 14.4218 21.1504 14.1256 21.2519 13.7363C21.3704 13.33 21.3196 12.9407 21.0996 12.5683L16.3769 4.3672C16.1569 4.0117 15.8522 3.7832 15.4629 3.6816C15.0735 3.5631 14.6927 3.6054 14.3203 3.8086ZM21.125 0.6855C20.7018 0.7702 20.3886 0.9902 20.1855 1.3457C19.9993 1.6842 19.9655 2.0905 20.084 2.5644L20.9218 5.7636C21.0234 6.153 21.2519 6.4407 21.6074 6.6269C21.9798 6.8131 22.403 6.8385 22.8769 6.7031C23.334 6.5677 23.6386 6.3392 23.791 6.0175C23.9603 5.679 23.9856 5.3066 23.8672 4.9004L22.9785 1.8281C22.86 1.3711 22.623 1.0494 22.2675 0.8633C21.929 0.6601 21.5481 0.6009 21.125 0.6855Z" fill="black"/>
</svg>
