<svg width="57" height="52" viewBox="0 0 57 52" fill="none" xmlns="http://www.w3.org/2000/svg">
<path d="M29.8607 11.0195C29.3021 11.0195 28.8197 11.2142 28.4134 11.6035C28.0241 11.9928 27.8294 12.4668 27.8294 13.0254V27.1933C27.8294 27.498 27.8802 27.7858 27.9818 28.0566C28.0834 28.3105 28.2357 28.5729 28.4388 28.8437L34.7103 37.1211C35.1335 37.6627 35.6159 37.9843 36.1576 38.0859C36.7162 38.1705 37.2494 38.0351 37.7572 37.6796C38.2311 37.358 38.485 36.9264 38.5189 36.3847C38.5697 35.8261 38.4004 35.2929 38.0111 34.7851L29.556 23.3847L31.8666 30.4941V13.0254C31.8666 12.4668 31.6719 11.9928 31.2826 11.6035C30.8932 11.2142 30.4193 11.0195 29.8607 11.0195ZM30.8255 51.7968C34.3633 51.7968 37.6895 51.1198 40.8041 49.7656C43.9356 48.4114 46.6947 46.541 49.0814 44.1543C51.4681 41.7675 53.3386 39.0169 54.6927 35.9023C56.0469 32.7708 56.724 29.4362 56.724 25.8984C56.724 22.3606 56.0469 19.0345 54.6927 15.9199C53.3386 12.7884 51.4681 10.0293 49.0814 7.6425C46.6947 5.2558 43.9356 3.3854 40.8041 2.0312C37.6895 0.676999 34.3633 0 30.8255 0C27.2878 0 23.9531 0.676999 20.8216 2.0312C17.707 3.3854 14.9564 5.2558 12.5697 7.6425C10.183 10.0123 8.31253 12.763 6.95843 15.8945C5.60423 19.0091 4.92713 22.3352 4.92713 25.873H9.24353C9.24353 22.8769 9.79363 20.0755 10.8939 17.4687C12.0111 14.8619 13.5599 12.5768 15.5404 10.6132C17.5209 8.6497 19.8145 7.1178 22.4212 6.0175C25.028 4.9004 27.8294 4.3418 30.8255 4.3418C33.8216 4.3418 36.6231 4.9004 39.2298 6.0175C41.8366 7.1178 44.1218 8.6582 46.0853 10.6386C48.0658 12.6022 49.6146 14.8873 50.7318 17.4941C51.849 20.1009 52.4076 22.9023 52.4076 25.8984C52.4076 28.8945 51.849 31.7044 50.7318 34.3281C49.6146 36.9349 48.0658 39.2285 46.0853 41.2089C44.1218 43.1725 41.8366 44.7129 39.2298 45.83C36.6231 46.9472 33.8216 47.4974 30.8255 47.4804C28.405 47.4635 26.1113 47.0826 23.9447 46.3379C21.778 45.61 19.7891 44.5774 17.9779 43.2402C16.1836 41.903 14.6432 40.3372 13.3568 38.5429C12.9675 38.0182 12.4935 37.6881 11.9349 37.5527C11.3932 37.4004 10.8516 37.485 10.3099 37.8066C9.80213 38.1282 9.48893 38.5937 9.37053 39.2031C9.26893 39.8125 9.43823 40.3964 9.87833 40.955C11.4863 43.1048 13.3737 44.9922 15.5404 46.6172C17.707 48.2591 20.0853 49.5286 22.6751 50.4257C25.265 51.3398 27.9818 51.7968 30.8255 51.7968ZM1.80413 20.998C1.19473 20.998 0.737633 21.125 0.433033 21.3789C0.128333 21.6158 -0.0155679 21.9375 0.00133213 22.3437C0.0182321 22.75 0.187532 23.1901 0.509132 23.664L6.19663 31.7382C6.61983 32.3307 7.10223 32.6269 7.64393 32.6269C8.18563 32.61 8.65953 32.3138 9.06583 31.7382L14.7533 23.6386C15.0749 23.1647 15.2357 22.733 15.2357 22.3437C15.2526 21.9375 15.1087 21.6158 14.8041 21.3789C14.4994 21.125 14.0508 20.998 13.4584 20.998H1.80413Z" fill="black"/>
</svg>
