<svg width="74" height="42" viewBox="0 0 74 42" fill="none" xmlns="http://www.w3.org/2000/svg">
<path d="M0 38.416C0 39.2116 0.2793 39.8887 0.83789 40.4473C1.39648 41.0228 2.07357 41.3106 2.86914 41.3106H70.3574C71.153 41.3106 71.8301 41.0228 72.3887 40.4473C72.9473 39.8887 73.2266 39.2116 73.2266 38.416C73.2266 37.6205 72.9473 36.9434 72.3887 36.3848C71.8301 35.8093 71.153 35.5215 70.3574 35.5215H64.7969V5.3828C64.7969 3.6055 64.3314 2.2683 63.4004 1.3711C62.4863 0.457099 61.1406 0 59.3633 0H13.8633C12.1875 0 10.8587 0.457099 9.87698 1.3711C8.91208 2.2683 8.42968 3.6055 8.42968 5.3828V35.5215H2.86914C2.07357 35.5215 1.39648 35.8093 0.83789 36.3848C0.2793 36.9434 0 37.6205 0 38.416ZM12.5176 35.5215V6.5254C12.5176 5.7129 12.7207 5.1035 13.127 4.6973C13.5332 4.291 14.1426 4.0879 14.9551 4.0879H58.2715C59.084 4.0879 59.6934 4.291 60.0996 4.6973C60.5059 5.1035 60.709 5.7129 60.709 6.5254V35.5215H12.5176Z" fill="black"/>
</svg>
