<svg width="56" height="52" viewBox="0 0 56 52" fill="none" xmlns="http://www.w3.org/2000/svg">
<path d="M0.802573 45.8555C1.98747 47.4467 3.43477 48.7331 5.14437 49.7149C6.87097 50.7136 8.70747 51.3822 10.6542 51.7207C12.6008 52.0593 14.522 52.0339 16.4178 51.6446C18.3137 51.2722 20.0318 50.5189 21.5721 49.3848C23.3325 48.0814 24.6105 46.5749 25.4061 44.8653C26.2186 43.1726 26.5148 41.4122 26.2948 39.584C26.0917 37.739 25.3469 35.9616 24.0604 34.252C22.8586 32.627 21.496 31.4252 19.9725 30.6465C18.4491 29.851 16.8918 29.504 15.3006 29.6055C13.7264 29.7071 12.2368 30.2911 10.8319 31.3575C9.85007 32.1023 9.13917 32.9063 8.69907 33.7696C8.27587 34.6159 7.97117 35.4623 7.78497 36.3086C7.59877 37.1381 7.40417 37.8998 7.20097 38.5938C6.99787 39.2878 6.61707 39.8379 6.05847 40.2442C5.41517 40.7181 4.78887 41.0059 4.17957 41.1075C3.57017 41.209 2.99467 41.2852 2.45297 41.336C1.91127 41.3868 1.40347 41.5899 0.929573 41.9454C0.421673 42.3516 0.117073 42.9017 0.0154735 43.5957C-0.0691265 44.2898 0.193173 45.043 0.802573 45.8555ZM5.98227 45.4493C5.81297 45.28 5.72837 45.1107 5.72837 44.9415C5.72837 44.7722 5.78757 44.6283 5.90607 44.5098C6.02457 44.4082 6.23617 44.3067 6.54087 44.2051C6.86247 44.1205 7.22637 43.9935 7.63267 43.8243C8.03887 43.6381 8.41977 43.3588 8.77527 42.9864C9.40157 42.377 9.85007 41.7168 10.121 41.0059C10.4087 40.278 10.6542 39.5417 10.8573 38.7969C11.0604 38.0521 11.3312 37.3327 11.6698 36.6387C12.0083 35.9278 12.5331 35.3015 13.244 34.7598C14.0396 34.1335 14.9029 33.7865 15.8339 33.7188C16.7648 33.6511 17.6874 33.8457 18.6014 34.3028C19.5155 34.7598 20.3449 35.4623 21.0897 36.4102C21.9191 37.4935 22.3846 38.6276 22.4862 39.8125C22.6047 40.9805 22.3846 42.1231 21.826 43.2403C21.2674 44.3405 20.4211 45.3308 19.287 46.211C18.3221 46.9727 17.2557 47.5313 16.0878 47.8868C14.9367 48.2592 13.7518 48.42 12.5331 48.3692C11.3143 48.3184 10.1379 48.056 9.00377 47.5821C7.86967 47.1081 6.86247 46.3972 5.98227 45.4493ZM25.6346 39.8125C27.0057 39.6602 28.3006 39.237 29.5194 38.543C30.7381 37.849 31.9908 36.8503 33.2772 35.5469C34.6314 34.1928 36.0786 32.6101 37.619 30.7989C39.1594 28.9877 40.7082 27.0834 42.2655 25.086C43.8397 23.0717 45.3378 21.0912 46.7596 19.1446C48.1984 17.198 49.5018 15.4122 50.6698 13.7872C51.8378 12.1452 52.7941 10.7826 53.5389 9.6993C54.3006 8.6159 54.7746 7.9473 54.9608 7.6934C55.604 6.8132 55.9256 5.9161 55.9256 5.002C55.9256 4.0879 55.6971 3.2585 55.2401 2.5137C54.7831 1.752 54.1737 1.1426 53.412 0.6856C52.6672 0.2286 51.8378 0 50.9237 0C50.0096 0 49.104 0.313201 48.2069 0.939501C47.953 1.1257 47.2844 1.5912 46.201 2.336C45.1177 3.0808 43.7551 4.0372 42.1131 5.2051C40.4881 6.3731 38.7023 7.6765 36.7557 9.1153C34.8091 10.5372 32.8286 12.0352 30.8143 13.6094C28.8169 15.1667 26.9126 16.7155 25.1014 18.2559C23.2902 19.7963 21.7075 21.252 20.3534 22.6231C19.0839 23.9096 18.0936 25.1537 17.3827 26.3555C16.6887 27.5573 16.257 28.8269 16.0878 30.1641L20.0741 31.2559C20.1079 30.3249 20.3788 29.3939 20.8866 28.4629C21.3944 27.5319 22.173 26.5502 23.2225 25.5176C24.5767 24.1804 26.1424 22.767 27.9198 21.2774C29.6971 19.7709 31.5676 18.2559 33.5311 16.7325C35.4947 15.209 37.4159 13.7533 39.2948 12.3653C41.1906 10.9603 42.9256 9.6993 44.4999 8.5821C46.0741 7.448 47.3605 6.5254 48.3592 5.8145C49.3749 5.1036 49.9758 4.6804 50.162 4.545C50.4497 4.3249 50.7206 4.2657 50.9745 4.3672C51.2453 4.4519 51.423 4.6296 51.5077 4.9004C51.6092 5.1713 51.55 5.459 51.3299 5.7637C51.2284 5.933 50.8221 6.5254 50.1112 7.5411C49.4172 8.5398 48.5031 9.8262 47.369 11.4004C46.2518 12.9747 44.9908 14.7097 43.5858 16.6055C42.1809 18.5013 40.7082 20.431 39.1678 22.3946C37.6444 24.3581 36.1294 26.237 34.6229 28.0313C33.1164 29.8086 31.703 31.3575 30.3827 32.6778C29.3501 33.7103 28.4022 34.4636 27.5389 34.9375C26.6926 35.4115 25.8293 35.6993 24.9491 35.8008L25.6346 39.8125ZM30.1288 33.4395L33.3788 32.6016C33.2941 31.3998 32.9556 30.2234 32.3631 29.0723C31.7876 27.9043 31.0344 26.8464 30.1034 25.8985C29.1724 24.9506 28.1398 24.1804 27.0057 23.5879C25.8716 22.9786 24.7036 22.6231 23.5018 22.5215L22.41 25.7715C23.2225 25.7546 24.0773 25.9831 24.9745 26.4571C25.8716 26.931 26.7095 27.5573 27.4881 28.336C28.2668 29.1146 28.9016 29.961 29.3924 30.875C29.8833 31.7722 30.1288 32.627 30.1288 33.4395Z" fill="black"/>
</svg>
