<svg width="73" height="50" viewBox="0 0 73 50" fill="none" xmlns="http://www.w3.org/2000/svg">
<path d="M36.2324 49.5118C39.6178 49.5118 42.8001 48.8601 45.7793 47.5567C48.7754 46.2702 51.4075 44.4929 53.6758 42.2247C55.9609 39.9395 57.7552 37.3073 59.0586 34.3282C60.362 31.3321 61.0136 28.1413 61.0136 24.7559C61.0136 21.3705 60.362 18.1882 59.0586 15.209C57.7552 12.2129 55.9609 9.5808 53.6758 7.3125C51.4075 5.0274 48.7754 3.2416 45.7793 1.9551C42.7832 0.6517 39.5924 0 36.207 0C32.8216 0 29.6393 0.6433 26.6601 1.9297C23.681 3.2162 21.0488 5.002 18.7636 7.2871C16.4954 9.5723 14.7096 12.2129 13.4062 15.209C12.1198 18.1882 11.4765 21.3705 11.4765 24.7559C11.4765 28.1413 12.1198 31.3321 13.4062 34.3282C14.7096 37.3073 16.4954 39.9395 18.7636 42.2247C21.0488 44.4929 23.681 46.2702 26.6601 47.5567C29.6562 48.8601 32.847 49.5118 36.2324 49.5118ZM36.2324 45.1954C33.4056 45.1954 30.7565 44.6706 28.2851 43.6211C25.8138 42.5717 23.6386 41.1159 21.7597 39.2539C19.8978 37.375 18.442 35.1999 17.3926 32.7286C16.3431 30.2572 15.8183 27.5997 15.8183 24.7559C15.8183 21.9121 16.3431 19.2546 17.3926 16.7832C18.442 14.3119 19.8978 12.1452 21.7597 10.2832C23.6217 8.4043 25.7884 6.9401 28.2597 5.8907C30.7311 4.8243 33.3802 4.2911 36.207 4.2911C39.0508 4.2911 41.7083 4.8243 44.1797 5.8907C46.651 6.9401 48.8177 8.4043 50.6797 10.2832C52.5586 12.1452 54.0228 14.3119 55.0722 16.7832C56.1386 19.2546 56.6803 21.9121 56.6972 24.7559C56.6972 27.5827 56.1725 30.2318 55.123 32.7032C54.0735 35.1745 52.6094 37.3497 50.7304 39.2286C48.8515 41.1075 46.6764 42.5717 44.2051 43.6211C41.7337 44.6706 39.0762 45.1954 36.2324 45.1954ZM0 24.7559C0 28.7676 0.61784 32.5931 1.85351 36.2325C3.08919 39.8718 4.81575 43.198 7.03322 46.211C7.42252 46.7526 7.91342 47.0489 8.50582 47.0997C9.11522 47.1674 9.67382 46.9981 10.1816 46.5918C10.6386 46.2025 10.8926 45.7286 10.9433 45.17C11.011 44.6114 10.8587 44.0782 10.4863 43.5704C8.55662 40.9467 7.05012 38.0352 5.9668 34.836C4.88346 31.6368 4.3418 28.2767 4.3418 24.7559C4.3418 21.2181 4.88346 17.8581 5.9668 14.6758C7.05012 11.4766 8.55662 8.5482 10.4863 5.8907C10.8587 5.3998 11.0195 4.875 10.9687 4.3164C10.9179 3.7579 10.6556 3.2839 10.1816 2.8946C9.67382 2.4883 9.11522 2.3191 8.50582 2.3868C7.91342 2.4545 7.42252 2.7507 7.03322 3.2754C4.81575 6.2885 3.08919 9.6146 1.85351 13.2539C0.61784 16.8933 0 20.7273 0 24.7559ZM72.4648 24.7559C72.4648 20.7273 71.847 16.8933 70.6113 13.2539C69.3756 9.6146 67.6491 6.2885 65.4316 3.2754C65.0423 2.7507 64.5429 2.4545 63.9336 2.3868C63.3411 2.3191 62.791 2.4883 62.2832 2.8946C61.8092 3.2839 61.5469 3.7579 61.4961 4.3164C61.4622 4.875 61.623 5.3998 61.9785 5.8907C63.9251 8.5482 65.4316 11.4766 66.498 14.6758C67.5814 17.8581 68.123 21.2181 68.123 24.7559C68.123 28.2767 67.5814 31.6368 66.498 34.836C65.4316 38.0352 63.9251 40.9467 61.9785 43.5704C61.623 44.0782 61.4707 44.6114 61.5215 45.17C61.5722 45.7286 61.8262 46.2025 62.2832 46.5918C62.791 46.9981 63.3411 47.1674 63.9336 47.0997C64.5429 47.0489 65.0423 46.7526 65.4316 46.211C67.6491 43.198 69.3756 39.8718 70.6113 36.2325C71.847 32.5931 72.4648 28.7676 72.4648 24.7559ZM25.6191 26.3809C25.6191 26.6856 25.7291 26.9395 25.9492 27.1426C26.1692 27.3288 26.4316 27.4219 26.7363 27.4219H34.9121L30.5449 39.1778C30.3587 39.6856 30.3672 40.1003 30.5703 40.4219C30.7903 40.7435 31.1035 40.9128 31.5097 40.9297C31.916 40.9467 32.2884 40.752 32.6269 40.3457L45.8808 23.7149C46.1517 23.3933 46.2871 23.0801 46.2871 22.7754C46.2871 22.4538 46.1771 22.1999 45.957 22.0137C45.737 21.8106 45.4746 21.709 45.1699 21.709H36.9687L41.3613 9.9532C41.5475 9.4284 41.5306 9.0052 41.3105 8.6836C41.0905 8.362 40.7773 8.2012 40.3711 8.2012C39.9817 8.1843 39.6178 8.3874 39.2793 8.8106L26.0254 25.4414C25.7545 25.7461 25.6191 26.0593 25.6191 26.3809Z" fill="black"/>
</svg>
